<svg xmlns="http://www.w3.org/2000/svg" viewBox="0 0 623.05 123.79"><defs><style>.cls-1{fill:#3c71dd;fill-rule:evenodd;}.cls-2{fill:#161b1d;}.cls-3{fill:none;}</style></defs><title>Asset 3</title><g id="Layer_2" data-name="Layer 2"><g id="Layer_1-2" data-name="Layer 1"><path class="cls-1" d="M124.37,13.28V28.41H42.27a4,4,0,0,0-4,4v53.4H19.13V61.11a4,4,0,0,0-4-4H4a4,4,0,0,1-4-4V42a4,4,0,0,1,4-4H15.13a4,4,0,0,0,4-4V13.28a4,4,0,0,1,4-4h97.24A4,4,0,0,1,124.37,13.28Z"/><path class="cls-1" d="M95.67,38V57.11H47.83V42a4,4,0,0,1,4-4Z"/><path class="cls-1" d="M95.67,66.68V81.81a4,4,0,0,1-4,4H47.83V66.68Z"/><path class="cls-1" d="M143.5,70.68V81.81a4,4,0,0,1-4,4H128.37a4,4,0,0,0-4,4v20.7a4,4,0,0,1-4,4H23.13a4,4,0,0,1-4-4V95.38h82.11a4,4,0,0,0,4-4V38h19.13v24.7a4,4,0,0,0,4,4H139.5A4,4,0,0,1,143.5,70.68Z"/><polygon class="cls-2" points="209.33 37.67 209.33 54.09 242.67 54.09 242.67 68.74 209.33 68.74 209.33 100.9 193.5 100.9 193.5 23.02 244.63 23.02 244.63 37.67 209.33 37.67"/><path class="cls-2" d="M291.95,44l-.42,15.66-5.07-1.76a12.15,12.15,0,0,0-3.92-.57,10,10,0,0,0-5.89,1.5,9.21,9.21,0,0,0-3.2,4.06,15.08,15.08,0,0,0-1.14,5.84V100.9H256.47V61.37c0-2.23,0-4.5-.14-6.77s-.29-4.39-.61-6.54l-.64-4.49h15.7l.25,2.72a21,21,0,0,1,12.38-3.9,23,23,0,0,1,2.92.18,17.66,17.66,0,0,1,2.73.58Z"/><path class="cls-2" d="M337.57,43.57v2.22a23.66,23.66,0,0,0-12.78-3.4,24.41,24.41,0,0,0-13.6,3.88,25.56,25.56,0,0,0-9.13,10.66,35.39,35.39,0,0,0-3.14,15.25A35.57,35.57,0,0,0,302,87.38a24.24,24.24,0,0,0,9.16,10.51,25.25,25.25,0,0,0,13.63,3.7,23.66,23.66,0,0,0,12.78-3.4v2.71h15.73V43.57Zm0,28.42c0,5.16-1,9.09-3.08,11.67-1.88,2.37-4.46,3.47-8.13,3.47S320,86,318,83.64c-2.1-2.54-3.18-6.39-3.18-11.46s1.08-9,3.22-11.64c2-2.46,4.61-3.6,8.29-3.6s6.2,1.1,8.1,3.46C336.53,63,337.57,66.85,337.57,72Z"/><path class="cls-2" d="M414,83.59A16,16,0,0,1,407.17,97c-4.15,3.06-9.7,4.6-16.49,4.6-9.27,0-16.8-2.48-22.36-7.37l-2.18-1.93L372,79.2,376,82.26a24,24,0,0,0,7,3.85,24.6,24.6,0,0,0,8,1.22c3.66,0,5.47-.69,6.34-1.27a2.34,2.34,0,0,0,1.13-2.27,2,2,0,0,0-.62-1.71c-.46-.4-1.7-1.19-4.82-1.94l-8.35-2a22.29,22.29,0,0,1-11.53-6A15.69,15.69,0,0,1,368.65,61a16.67,16.67,0,0,1,3.1-9.91,19.65,19.65,0,0,1,8.19-6.47,28.67,28.67,0,0,1,11.62-2.2,32.68,32.68,0,0,1,11.17,1.91A24.79,24.79,0,0,1,411.95,50L413.87,52l-5.93,13-4-3.29a22.32,22.32,0,0,0-6.13-3.73,17.52,17.52,0,0,0-6.3-1.16c-2.66,0-4.7.46-5.93,1.34a2.62,2.62,0,0,0-1.25,2.4c0,1.39.45,1.83.63,2,.39.38,1.44,1.12,4,1.75l8.31,2.06c5.37,1.15,9.48,3.16,12.21,6A15.74,15.74,0,0,1,414,83.59Z"/><path class="cls-2" d="M448.78,57.73V80.84a9.48,9.48,0,0,0,.68,4.27,2.38,2.38,0,0,0,1.15,1.21,7.44,7.44,0,0,0,2.89.52,13.19,13.19,0,0,0,2-.14,14.32,14.32,0,0,0,2.06-.54l5.18-1.74v15.2l-2.82.83a30.68,30.68,0,0,1-3.82.86,29.08,29.08,0,0,1-4.18.29c-5.62,0-10.23-1.69-13.7-5S433,88.25,433,81.92V57.73h-9.64V43.57H433V32l15.83-5.66V43.57h14.16V57.73Z"/><path class="cls-2" d="M531.4,43.57,505.95,103a39,39,0,0,1-6.74,10.73,27.35,27.35,0,0,1-8.8,6.36,43,43,0,0,1-10.12,3l-3.54.63-3.67-13.58,3.94-.94a38.58,38.58,0,0,0,6.89-2.25,13,13,0,0,0,4-2.8,16.57,16.57,0,0,0,2.93-4.84l1.28-2.94L469.52,43.57h17L500.58,78l14.27-34.41Z"/><rect class="cls-2" x="540.55" y="22.71" width="15.83" height="78.19"/><path class="cls-2" d="M623,70.51a34.65,34.65,0,0,0-2.87-14.63,22.63,22.63,0,0,0-8.73-10,25.16,25.16,0,0,0-13.37-3.48,26.55,26.55,0,0,0-14.2,3.84,26.13,26.13,0,0,0-9.66,10.61,33.33,33.33,0,0,0-3.38,15.25,33.25,33.25,0,0,0,3.45,15.54,24.68,24.68,0,0,0,10.15,10.43,31.12,31.12,0,0,0,15.11,3.53,35.33,35.33,0,0,0,11.67-2,27.07,27.07,0,0,0,9.71-5.66L623,92,617,79l-3.94,3.2a21.85,21.85,0,0,1-6.46,3.73,20.65,20.65,0,0,1-7,1.2c-4.35,0-7.48-1.17-9.57-3.57a14.49,14.49,0,0,1-3-7.64h36ZM605.57,59.6a9.92,9.92,0,0,1,1.7,3.25h-19A12.44,12.44,0,0,1,590,60.05c2-2.46,4.58-3.6,8.19-3.6A10.27,10.27,0,0,1,604,58,6,6,0,0,1,605.57,59.6Z"/><rect class="cls-3" width="623.05" height="123.79"/></g></g></svg>