<svg xmlns="http://www.w3.org/2000/svg" viewBox="0 0 143.5 105.23"><defs><style>.a{fill:#207fdf;fill-rule:evenodd;}</style></defs><title>Asset 8</title><path class="a" d="M124.37,4V19.13H42.27a4,4,0,0,0-4,4v53.4H19.13V51.83a4,4,0,0,0-4-4H4a4,4,0,0,1-4-4V32.7a4,4,0,0,1,4-4H15.13a4,4,0,0,0,4-4V4a4,4,0,0,1,4-4h97.24A4,4,0,0,1,124.37,4Z"/><path class="a" d="M95.67,28.7V47.83H47.83V32.7a4,4,0,0,1,4-4Z"/><path class="a" d="M95.67,57.4V72.53a4,4,0,0,1-4,4H47.83V57.4Z"/><path class="a" d="M143.5,61.4V72.53a4,4,0,0,1-4,4H128.37a4,4,0,0,0-4,4v20.7a4,4,0,0,1-4,4H23.13a4,4,0,0,1-4-4V86.1h82.11a4,4,0,0,0,4-4V28.7h19.13V53.4a4,4,0,0,0,4,4H139.5A4,4,0,0,1,143.5,61.4Z"/></svg>