<svg xmlns="http://www.w3.org/2000/svg" viewBox="0 0 564 98"><defs><style>.a{fill:#161b1d;opacity:0.075;}</style></defs><title>Asset 3</title><path class="a" d="M490,74.74A12,12,0,0,1,478.74,86a.67.67,0,0,1-.71-.71A12,12,0,0,1,489.26,74,.67.67,0,0,1,490,74.74Z"/><path class="a" d="M501.26,86A12,12,0,0,1,490,74.74a.67.67,0,0,1,.71-.71A12,12,0,0,1,502,85.27.67.67,0,0,1,501.26,86Z"/><path class="a" d="M489.26,98A12,12,0,0,1,478,86.74a.67.67,0,0,1,.71-.71A12,12,0,0,1,490,97.27.67.67,0,0,1,489.26,98Z"/><path class="a" d="M502,86.74A12,12,0,0,1,490.74,98a.67.67,0,0,1-.71-.71A12,12,0,0,1,501.26,86,.67.67,0,0,1,502,86.74Z"/><path class="a" d="M492,86a2,2,0,1,1-2-2A2,2,0,0,1,492,86Z"/><path class="a" d="M480,98h-4a2,2,0,0,1,2-2h0A2,2,0,0,1,480,98Z"/><path class="a" d="M504,98h-4a2,2,0,0,1,4,0Z"/><path class="a" d="M466,74.74A12,12,0,0,1,454.74,86a.67.67,0,0,1-.71-.71A12,12,0,0,1,465.26,74,.67.67,0,0,1,466,74.74Z"/><path class="a" d="M477.26,86A12,12,0,0,1,466,74.74a.67.67,0,0,1,.71-.71A12,12,0,0,1,478,85.27.67.67,0,0,1,477.26,86Z"/><path class="a" d="M465.26,98A12,12,0,0,1,454,86.74a.67.67,0,0,1,.71-.71A12,12,0,0,1,466,97.27.67.67,0,0,1,465.26,98Z"/><path class="a" d="M478,86.74A12,12,0,0,1,466.74,98a.67.67,0,0,1-.71-.71A12,12,0,0,1,477.26,86,.67.67,0,0,1,478,86.74Z"/><path class="a" d="M468,86a2,2,0,1,1-2-2A2,2,0,0,1,468,86Z"/><path class="a" d="M442,74.74A12,12,0,0,1,430.74,86a.67.67,0,0,1-.71-.71A12,12,0,0,1,441.26,74,.67.67,0,0,1,442,74.74Z"/><path class="a" d="M453.26,86A12,12,0,0,1,442,74.74a.67.67,0,0,1,.71-.71A12,12,0,0,1,454,85.27.67.67,0,0,1,453.26,86Z"/><path class="a" d="M441.26,98A12,12,0,0,1,430,86.74a.67.67,0,0,1,.71-.71A12,12,0,0,1,442,97.27.67.67,0,0,1,441.26,98Z"/><path class="a" d="M454,86.74A12,12,0,0,1,442.74,98a.67.67,0,0,1-.71-.71A12,12,0,0,1,453.26,86,.67.67,0,0,1,454,86.74Z"/><path class="a" d="M444,86a2,2,0,1,1-2-2A2,2,0,0,1,444,86Z"/><path class="a" d="M432,98h-4a2,2,0,0,1,2-2h0A2,2,0,0,1,432,98Z"/><path class="a" d="M456,98h-4a2,2,0,0,1,2-2h0A2,2,0,0,1,456,98Z"/><path class="a" d="M418,74.74A12,12,0,0,1,406.74,86a.67.67,0,0,1-.71-.71A12,12,0,0,1,417.26,74,.67.67,0,0,1,418,74.74Z"/><path class="a" d="M429.26,86A12,12,0,0,1,418,74.74a.67.67,0,0,1,.71-.71A12,12,0,0,1,430,85.27.67.67,0,0,1,429.26,86Z"/><path class="a" d="M417.26,98A12,12,0,0,1,406,86.74a.67.67,0,0,1,.71-.71A12,12,0,0,1,418,97.27.67.67,0,0,1,417.26,98Z"/><path class="a" d="M430,86.74A12,12,0,0,1,418.74,98a.67.67,0,0,1-.71-.71A12,12,0,0,1,429.26,86,.67.67,0,0,1,430,86.74Z"/><path class="a" d="M420,86a2,2,0,1,1-2-2A2,2,0,0,1,420,86Z"/><path class="a" d="M405.26,86A12,12,0,0,1,394,74.74a.67.67,0,0,1,.71-.71A12,12,0,0,1,406,85.27.67.67,0,0,1,405.26,86Z"/><path class="a" d="M406,86.74A12,12,0,0,1,394.74,98a.67.67,0,0,1-.71-.71A12,12,0,0,1,405.26,86,.67.67,0,0,1,406,86.74Z"/><path class="a" d="M396,86a2,2,0,1,1-2-2A2,2,0,0,1,396,86Z"/><path class="a" d="M408,98h-4a2,2,0,0,1,2-2h0A2,2,0,0,1,408,98Z"/><path class="a" d="M490,50.74A12,12,0,0,1,478.74,62a.67.67,0,0,1-.71-.71A12,12,0,0,1,489.26,50,.67.67,0,0,1,490,50.74Z"/><path class="a" d="M501.26,62A12,12,0,0,1,490,50.74a.67.67,0,0,1,.71-.71A12,12,0,0,1,502,61.27.67.67,0,0,1,501.26,62Z"/><path class="a" d="M489.26,74A12,12,0,0,1,478,62.74a.67.67,0,0,1,.71-.71A12,12,0,0,1,490,73.27.67.67,0,0,1,489.26,74Z"/><path class="a" d="M502,62.74A12,12,0,0,1,490.74,74a.67.67,0,0,1-.71-.71A12,12,0,0,1,501.26,62,.67.67,0,0,1,502,62.74Z"/><path class="a" d="M492,62a2,2,0,1,1-2-2A2,2,0,0,1,492,62Z"/><path class="a" d="M504,74a2,2,0,1,1-2-2A2,2,0,0,1,504,74Z"/><path class="a" d="M466,50.74A12,12,0,0,1,454.74,62a.67.67,0,0,1-.71-.71A12,12,0,0,1,465.26,50,.67.67,0,0,1,466,50.74Z"/><path class="a" d="M477.26,62A12,12,0,0,1,466,50.74a.67.67,0,0,1,.71-.71A12,12,0,0,1,478,61.27.67.67,0,0,1,477.26,62Z"/><path class="a" d="M465.26,74A12,12,0,0,1,454,62.74a.67.67,0,0,1,.71-.71A12,12,0,0,1,466,73.27.67.67,0,0,1,465.26,74Z"/><path class="a" d="M478,62.74A12,12,0,0,1,466.74,74a.67.67,0,0,1-.71-.71A12,12,0,0,1,477.26,62,.67.67,0,0,1,478,62.74Z"/><path class="a" d="M468,62a2,2,0,1,1-2-2A2,2,0,0,1,468,62Z"/><path class="a" d="M480,74a2,2,0,0,1-2,2h0a2,2,0,0,1,0-4h0A2,2,0,0,1,480,74Z"/><path class="a" d="M442,50.74A12,12,0,0,1,430.74,62a.67.67,0,0,1-.71-.71A12,12,0,0,1,441.26,50,.67.67,0,0,1,442,50.74Z"/><path class="a" d="M453.26,62A12,12,0,0,1,442,50.74a.67.67,0,0,1,.71-.71A12,12,0,0,1,454,61.27.67.67,0,0,1,453.26,62Z"/><path class="a" d="M441.26,74A12,12,0,0,1,430,62.74a.67.67,0,0,1,.71-.71A12,12,0,0,1,442,73.27.67.67,0,0,1,441.26,74Z"/><path class="a" d="M454,62.74A12,12,0,0,1,442.74,74a.67.67,0,0,1-.71-.71A12,12,0,0,1,453.26,62,.67.67,0,0,1,454,62.74Z"/><path class="a" d="M444,62a2,2,0,1,1-2-2A2,2,0,0,1,444,62Z"/><path class="a" d="M456,74a2,2,0,0,1-2,2h0a2,2,0,0,1,0-4h0A2,2,0,0,1,456,74Z"/><path class="a" d="M429.26,62A12,12,0,0,1,418,50.74a.67.67,0,0,1,.71-.71A12,12,0,0,1,430,61.27.67.67,0,0,1,429.26,62Z"/><path class="a" d="M417.26,74A12,12,0,0,1,406,62.74a.67.67,0,0,1,.71-.71A12,12,0,0,1,418,73.27.67.67,0,0,1,417.26,74Z"/><path class="a" d="M430,62.74A12,12,0,0,1,418.74,74a.67.67,0,0,1-.71-.71A12,12,0,0,1,429.26,62,.67.67,0,0,1,430,62.74Z"/><path class="a" d="M420,62a2,2,0,1,1-2-2A2,2,0,0,1,420,62Z"/><path class="a" d="M432,74a2,2,0,0,1-2,2h0a2,2,0,0,1,0-4h0A2,2,0,0,1,432,74Z"/><path class="a" d="M408,74a2,2,0,0,1-2,2h0a2,2,0,0,1,0-4h0A2,2,0,0,1,408,74Z"/><path class="a" d="M490,26.74A12,12,0,0,1,478.74,38a.67.67,0,0,1-.71-.71A12,12,0,0,1,489.26,26,.67.67,0,0,1,490,26.74Z"/><path class="a" d="M501.26,38A12,12,0,0,1,490,26.74a.67.67,0,0,1,.71-.71A12,12,0,0,1,502,37.27.67.67,0,0,1,501.26,38Z"/><path class="a" d="M489.26,50A12,12,0,0,1,478,38.74a.67.67,0,0,1,.71-.71A12,12,0,0,1,490,49.27.67.67,0,0,1,489.26,50Z"/><path class="a" d="M502,38.74A12,12,0,0,1,490.74,50a.67.67,0,0,1-.71-.71A12,12,0,0,1,501.26,38,.67.67,0,0,1,502,38.74Z"/><path class="a" d="M492,38a2,2,0,1,1-2-2A2,2,0,0,1,492,38Z"/><path class="a" d="M504,50a2,2,0,1,1-2-2A2,2,0,0,1,504,50Z"/><path class="a" d="M466,26.74A12,12,0,0,1,454.74,38a.67.67,0,0,1-.71-.71A12,12,0,0,1,465.26,26,.67.67,0,0,1,466,26.74Z"/><path class="a" d="M477.26,38A12,12,0,0,1,466,26.74a.67.67,0,0,1,.71-.71A12,12,0,0,1,478,37.27.67.67,0,0,1,477.26,38Z"/><path class="a" d="M465.26,50A12,12,0,0,1,454,38.74a.67.67,0,0,1,.71-.71A12,12,0,0,1,466,49.27.67.67,0,0,1,465.26,50Z"/><path class="a" d="M478,38.74A12,12,0,0,1,466.74,50a.67.67,0,0,1-.71-.71A12,12,0,0,1,477.26,38,.67.67,0,0,1,478,38.74Z"/><path class="a" d="M468,38a2,2,0,1,1-2-2A2,2,0,0,1,468,38Z"/><path class="a" d="M456,50a2,2,0,0,1-2,2h0a2,2,0,0,1,0-4h0A2,2,0,0,1,456,50Z"/><path class="a" d="M480,50a2,2,0,0,1-2,2h0a2,2,0,0,1,0-4h0A2,2,0,0,1,480,50Z"/><path class="a" d="M453.26,38A12,12,0,0,1,442,26.74a.67.67,0,0,1,.71-.71A12,12,0,0,1,454,37.27.67.67,0,0,1,453.26,38Z"/><path class="a" d="M441.26,50A12,12,0,0,1,430,38.74a.67.67,0,0,1,.71-.71A12,12,0,0,1,442,49.27.67.67,0,0,1,441.26,50Z"/><path class="a" d="M454,38.74A12,12,0,0,1,442.74,50a.67.67,0,0,1-.71-.71A12,12,0,0,1,453.26,38,.67.67,0,0,1,454,38.74Z"/><path class="a" d="M444,38a2,2,0,1,1-2-2A2,2,0,0,1,444,38Z"/><path class="a" d="M432,50a2,2,0,0,1-2,2h0a2,2,0,0,1,0-4h0A2,2,0,0,1,432,50Z"/><path class="a" d="M490,2.74A12,12,0,0,1,478.74,14a.67.67,0,0,1-.71-.71A12,12,0,0,1,489.26,2,.67.67,0,0,1,490,2.74Z"/><path class="a" d="M489.26,26A12,12,0,0,1,478,14.74a.67.67,0,0,1,.71-.71A12,12,0,0,1,490,25.27.67.67,0,0,1,489.26,26Z"/><path class="a" d="M502,14.74A12,12,0,0,1,490.74,26a.67.67,0,0,1-.71-.71A12,12,0,0,1,501.26,14,.67.67,0,0,1,502,14.74Z"/><path class="a" d="M492,14a2,2,0,1,1-2-2A2,2,0,0,1,492,14Z"/><path class="a" d="M504,26a2,2,0,1,1-2-2A2,2,0,0,1,504,26Z"/><path class="a" d="M477.26,14A12,12,0,0,1,466,2.74a.67.67,0,0,1,.71-.71A12,12,0,0,1,478,13.27.67.67,0,0,1,477.26,14Z"/><path class="a" d="M465.26,26A12,12,0,0,1,454,14.74a.67.67,0,0,1,.71-.71A12,12,0,0,1,466,25.27.67.67,0,0,1,465.26,26Z"/><path class="a" d="M478,14.74A12,12,0,0,1,466.74,26a.67.67,0,0,1-.71-.71A12,12,0,0,1,477.26,14,.67.67,0,0,1,478,14.74Z"/><path class="a" d="M468,14a2,2,0,1,1-2-2A2,2,0,0,1,468,14Z"/><path class="a" d="M480,26a2,2,0,0,1-2,2h0a2,2,0,0,1,0-4h0A2,2,0,0,1,480,26Z"/><path class="a" d="M456,26a2,2,0,0,1-2,2h0a2,2,0,0,1,0-4h0A2,2,0,0,1,456,26Z"/><path class="a" d="M480,2a2,2,0,0,1-2,2h0a2,2,0,1,1,0-4h0A2,2,0,0,1,480,2Z"/><path class="a" d="M514,74.74A12,12,0,0,0,525.27,86a.67.67,0,0,0,.71-.71A12,12,0,0,0,514.74,74,.67.67,0,0,0,514,74.74Z"/><path class="a" d="M502.74,86A12,12,0,0,0,514,74.74a.67.67,0,0,0-.71-.71A12,12,0,0,0,502,85.27.67.67,0,0,0,502.74,86Z"/><path class="a" d="M514.74,98A12,12,0,0,0,526,86.74a.67.67,0,0,0-.71-.71A12,12,0,0,0,514,97.27.67.67,0,0,0,514.74,98Z"/><path class="a" d="M502,86.74A12,12,0,0,0,513.27,98a.67.67,0,0,0,.71-.71A12,12,0,0,0,502.74,86,.67.67,0,0,0,502,86.74Z"/><path class="a" d="M516,86a2,2,0,1,1-2-2A2,2,0,0,1,516,86Z"/><path class="a" d="M528,98h-4a2,2,0,0,1,2-2h0A2,2,0,0,1,528,98Z"/><path class="a" d="M538,74.74A12,12,0,0,0,549.27,86a.67.67,0,0,0,.71-.71A12,12,0,0,0,538.74,74,.67.67,0,0,0,538,74.74Z"/><path class="a" d="M526.74,86A12,12,0,0,0,538,74.74a.67.67,0,0,0-.71-.71A12,12,0,0,0,526,85.27.67.67,0,0,0,526.74,86Z"/><path class="a" d="M538.74,98A12,12,0,0,0,550,86.74a.67.67,0,0,0-.71-.71A12,12,0,0,0,538,97.27.67.67,0,0,0,538.74,98Z"/><path class="a" d="M526,86.74A12,12,0,0,0,537.27,98a.67.67,0,0,0,.71-.71A12,12,0,0,0,526.74,86,.67.67,0,0,0,526,86.74Z"/><path class="a" d="M540,86a2,2,0,1,1-2-2A2,2,0,0,1,540,86Z"/><path class="a" d="M552,98h-4a2,2,0,0,1,2-2h0A2,2,0,0,1,552,98Z"/><path class="a" d="M550.74,86A12,12,0,0,0,562,74.74a.67.67,0,0,0-.71-.71A12,12,0,0,0,550,85.27.67.67,0,0,0,550.74,86Z"/><path class="a" d="M550,86.74A12,12,0,0,0,561.27,98a.67.67,0,0,0,.71-.71A12,12,0,0,0,550.74,86,.67.67,0,0,0,550,86.74Z"/><path class="a" d="M564,86a2,2,0,1,1-2-2A2,2,0,0,1,564,86Z"/><path class="a" d="M514,50.74A12,12,0,0,0,525.27,62a.67.67,0,0,0,.71-.71A12,12,0,0,0,514.74,50,.67.67,0,0,0,514,50.74Z"/><path class="a" d="M502.74,62A12,12,0,0,0,514,50.74a.67.67,0,0,0-.71-.71A12,12,0,0,0,502,61.27.67.67,0,0,0,502.74,62Z"/><path class="a" d="M514.74,74A12,12,0,0,0,526,62.74a.67.67,0,0,0-.71-.71A12,12,0,0,0,514,73.27.67.67,0,0,0,514.74,74Z"/><path class="a" d="M502,62.74A12,12,0,0,0,513.27,74a.67.67,0,0,0,.71-.71A12,12,0,0,0,502.74,62,.67.67,0,0,0,502,62.74Z"/><path class="a" d="M516,62a2,2,0,1,1-2-2A2,2,0,0,1,516,62Z"/><path class="a" d="M528,74a2,2,0,0,1-2,2h0a2,2,0,0,1,0-4h0A2,2,0,0,1,528,74Z"/><path class="a" d="M526.74,62A12,12,0,0,0,538,50.74a.67.67,0,0,0-.71-.71A12,12,0,0,0,526,61.27.67.67,0,0,0,526.74,62Z"/><path class="a" d="M538.74,74A12,12,0,0,0,550,62.74a.67.67,0,0,0-.71-.71A12,12,0,0,0,538,73.27.67.67,0,0,0,538.74,74Z"/><path class="a" d="M526,62.74A12,12,0,0,0,537.27,74a.67.67,0,0,0,.71-.71A12,12,0,0,0,526.74,62,.67.67,0,0,0,526,62.74Z"/><path class="a" d="M540,62a2,2,0,1,1-2-2A2,2,0,0,1,540,62Z"/><path class="a" d="M552,74a2,2,0,0,1-2,2h0a2,2,0,0,1,0-4h0A2,2,0,0,1,552,74Z"/><path class="a" d="M502.74,38A12,12,0,0,0,514,26.74a.67.67,0,0,0-.71-.71A12,12,0,0,0,502,37.27.67.67,0,0,0,502.74,38Z"/><path class="a" d="M514.74,50A12,12,0,0,0,526,38.74a.67.67,0,0,0-.71-.71A12,12,0,0,0,514,49.27.67.67,0,0,0,514.74,50Z"/><path class="a" d="M502,38.74A12,12,0,0,0,513.27,50a.67.67,0,0,0,.71-.71A12,12,0,0,0,502.74,38,.67.67,0,0,0,502,38.74Z"/><path class="a" d="M516,38a2,2,0,1,1-2-2A2,2,0,0,1,516,38Z"/><path class="a" d="M528,50a2,2,0,0,1-2,2h0a2,2,0,0,1,0-4h0A2,2,0,0,1,528,50Z"/><path class="a" d="M74,74.74A12,12,0,0,0,85.27,86a.67.67,0,0,0,.71-.71A12,12,0,0,0,74.74,74,.67.67,0,0,0,74,74.74Z"/><path class="a" d="M62.74,86A12,12,0,0,0,74,74.74a.67.67,0,0,0-.71-.71A12,12,0,0,0,62,85.27.67.67,0,0,0,62.74,86Z"/><path class="a" d="M74.74,98A12,12,0,0,0,86,86.74a.67.67,0,0,0-.71-.71A12,12,0,0,0,74,97.27.67.67,0,0,0,74.74,98Z"/><path class="a" d="M62,86.74A12,12,0,0,0,73.27,98a.67.67,0,0,0,.71-.71A12,12,0,0,0,62.74,86,.67.67,0,0,0,62,86.74Z"/><path class="a" d="M72,86a2,2,0,1,0,2-2A2,2,0,0,0,72,86Z"/><path class="a" d="M84,98h4a2,2,0,0,0-2-2h0A2,2,0,0,0,84,98Z"/><path class="a" d="M60,98h4a2,2,0,0,0-4,0Z"/><path class="a" d="M98,74.74A12,12,0,0,0,109.27,86a.67.67,0,0,0,.71-.71A12,12,0,0,0,98.74,74,.67.67,0,0,0,98,74.74Z"/><path class="a" d="M86.74,86A12,12,0,0,0,98,74.74a.67.67,0,0,0-.71-.71A12,12,0,0,0,86,85.27.67.67,0,0,0,86.74,86Z"/><path class="a" d="M98.74,98A12,12,0,0,0,110,86.74a.67.67,0,0,0-.71-.71A12,12,0,0,0,98,97.27.67.67,0,0,0,98.74,98Z"/><path class="a" d="M86,86.74A12,12,0,0,0,97.27,98a.67.67,0,0,0,.71-.71A12,12,0,0,0,86.74,86,.67.67,0,0,0,86,86.74Z"/><path class="a" d="M96,86a2,2,0,1,0,2-2A2,2,0,0,0,96,86Z"/><path class="a" d="M122,74.74A12,12,0,0,0,133.27,86a.67.67,0,0,0,.71-.71A12,12,0,0,0,122.74,74,.67.67,0,0,0,122,74.74Z"/><path class="a" d="M110.74,86A12,12,0,0,0,122,74.74a.67.67,0,0,0-.71-.71A12,12,0,0,0,110,85.27.67.67,0,0,0,110.74,86Z"/><path class="a" d="M122.74,98A12,12,0,0,0,134,86.74a.67.67,0,0,0-.71-.71A12,12,0,0,0,122,97.27.67.67,0,0,0,122.74,98Z"/><path class="a" d="M110,86.74A12,12,0,0,0,121.27,98a.67.67,0,0,0,.71-.71A12,12,0,0,0,110.74,86,.67.67,0,0,0,110,86.74Z"/><path class="a" d="M120,86a2,2,0,1,0,2-2A2,2,0,0,0,120,86Z"/><path class="a" d="M132,98h4a2,2,0,0,0-2-2h0A2,2,0,0,0,132,98Z"/><path class="a" d="M108,98h4a2,2,0,0,0-2-2h0A2,2,0,0,0,108,98Z"/><path class="a" d="M146,74.74A12,12,0,0,0,157.27,86a.67.67,0,0,0,.71-.71A12,12,0,0,0,146.74,74,.67.67,0,0,0,146,74.74Z"/><path class="a" d="M134.74,86A12,12,0,0,0,146,74.74a.67.67,0,0,0-.71-.71A12,12,0,0,0,134,85.27.67.67,0,0,0,134.74,86Z"/><path class="a" d="M146.74,98A12,12,0,0,0,158,86.74a.67.67,0,0,0-.71-.71A12,12,0,0,0,146,97.27.67.67,0,0,0,146.74,98Z"/><path class="a" d="M134,86.74A12,12,0,0,0,145.27,98a.67.67,0,0,0,.71-.71A12,12,0,0,0,134.74,86,.67.67,0,0,0,134,86.74Z"/><path class="a" d="M144,86a2,2,0,1,0,2-2A2,2,0,0,0,144,86Z"/><path class="a" d="M158.74,86A12,12,0,0,0,170,74.74a.67.67,0,0,0-.71-.71A12,12,0,0,0,158,85.27.67.67,0,0,0,158.74,86Z"/><path class="a" d="M158,86.74A12,12,0,0,0,169.27,98a.67.67,0,0,0,.71-.71A12,12,0,0,0,158.74,86,.67.67,0,0,0,158,86.74Z"/><path class="a" d="M168,86a2,2,0,1,0,2-2A2,2,0,0,0,168,86Z"/><path class="a" d="M156,98h4a2,2,0,0,0-2-2h0A2,2,0,0,0,156,98Z"/><path class="a" d="M74,50.74A12,12,0,0,0,85.27,62a.67.67,0,0,0,.71-.71A12,12,0,0,0,74.74,50,.67.67,0,0,0,74,50.74Z"/><path class="a" d="M62.74,62A12,12,0,0,0,74,50.74a.67.67,0,0,0-.71-.71A12,12,0,0,0,62,61.27.67.67,0,0,0,62.74,62Z"/><path class="a" d="M74.74,74A12,12,0,0,0,86,62.74a.67.67,0,0,0-.71-.71A12,12,0,0,0,74,73.27.67.67,0,0,0,74.74,74Z"/><path class="a" d="M62,62.74A12,12,0,0,0,73.27,74a.67.67,0,0,0,.71-.71A12,12,0,0,0,62.74,62,.67.67,0,0,0,62,62.74Z"/><path class="a" d="M72,62a2,2,0,1,0,2-2A2,2,0,0,0,72,62Z"/><path class="a" d="M60,74a2,2,0,1,0,2-2A2,2,0,0,0,60,74Z"/><path class="a" d="M98,50.74A12,12,0,0,0,109.27,62a.67.67,0,0,0,.71-.71A12,12,0,0,0,98.74,50,.67.67,0,0,0,98,50.74Z"/><path class="a" d="M86.74,62A12,12,0,0,0,98,50.74a.67.67,0,0,0-.71-.71A12,12,0,0,0,86,61.27.67.67,0,0,0,86.74,62Z"/><path class="a" d="M98.74,74A12,12,0,0,0,110,62.74a.67.67,0,0,0-.71-.71A12,12,0,0,0,98,73.27.67.67,0,0,0,98.74,74Z"/><path class="a" d="M86,62.74A12,12,0,0,0,97.27,74a.67.67,0,0,0,.71-.71A12,12,0,0,0,86.74,62,.67.67,0,0,0,86,62.74Z"/><path class="a" d="M96,62a2,2,0,1,0,2-2A2,2,0,0,0,96,62Z"/><path class="a" d="M84,74a2,2,0,0,0,2,2h0a2,2,0,0,0,0-4h0A2,2,0,0,0,84,74Z"/><path class="a" d="M122,50.74A12,12,0,0,0,133.27,62a.67.67,0,0,0,.71-.71A12,12,0,0,0,122.74,50,.67.67,0,0,0,122,50.74Z"/><path class="a" d="M110.74,62A12,12,0,0,0,122,50.74a.67.67,0,0,0-.71-.71A12,12,0,0,0,110,61.27.67.67,0,0,0,110.74,62Z"/><path class="a" d="M122.74,74A12,12,0,0,0,134,62.74a.67.67,0,0,0-.71-.71A12,12,0,0,0,122,73.27.67.67,0,0,0,122.74,74Z"/><path class="a" d="M110,62.74A12,12,0,0,0,121.27,74a.67.67,0,0,0,.71-.71A12,12,0,0,0,110.74,62,.67.67,0,0,0,110,62.74Z"/><path class="a" d="M120,62a2,2,0,1,0,2-2A2,2,0,0,0,120,62Z"/><path class="a" d="M108,74a2,2,0,0,0,2,2h0a2,2,0,0,0,0-4h0A2,2,0,0,0,108,74Z"/><path class="a" d="M134.74,62A12,12,0,0,0,146,50.74a.67.67,0,0,0-.71-.71A12,12,0,0,0,134,61.27.67.67,0,0,0,134.74,62Z"/><path class="a" d="M146.74,74A12,12,0,0,0,158,62.74a.67.67,0,0,0-.71-.71A12,12,0,0,0,146,73.27.67.67,0,0,0,146.74,74Z"/><path class="a" d="M134,62.74A12,12,0,0,0,145.27,74a.67.67,0,0,0,.71-.71A12,12,0,0,0,134.74,62,.67.67,0,0,0,134,62.74Z"/><path class="a" d="M144,62a2,2,0,1,0,2-2A2,2,0,0,0,144,62Z"/><path class="a" d="M132,74a2,2,0,0,0,2,2h0a2,2,0,0,0,0-4h0A2,2,0,0,0,132,74Z"/><path class="a" d="M156,74a2,2,0,0,0,2,2h0a2,2,0,0,0,0-4h0A2,2,0,0,0,156,74Z"/><path class="a" d="M74,26.74A12,12,0,0,0,85.27,38a.67.67,0,0,0,.71-.71A12,12,0,0,0,74.74,26,.67.67,0,0,0,74,26.74Z"/><path class="a" d="M62.74,38A12,12,0,0,0,74,26.74a.67.67,0,0,0-.71-.71A12,12,0,0,0,62,37.27.67.67,0,0,0,62.74,38Z"/><path class="a" d="M74.74,50A12,12,0,0,0,86,38.74a.67.67,0,0,0-.71-.71A12,12,0,0,0,74,49.27.67.67,0,0,0,74.74,50Z"/><path class="a" d="M62,38.74A12,12,0,0,0,73.27,50a.67.67,0,0,0,.71-.71A12,12,0,0,0,62.74,38,.67.67,0,0,0,62,38.74Z"/><path class="a" d="M72,38a2,2,0,1,0,2-2A2,2,0,0,0,72,38Z"/><path class="a" d="M60,50a2,2,0,1,0,2-2A2,2,0,0,0,60,50Z"/><path class="a" d="M98,26.74A12,12,0,0,0,109.27,38a.67.67,0,0,0,.71-.71A12,12,0,0,0,98.74,26,.67.67,0,0,0,98,26.74Z"/><path class="a" d="M86.74,38A12,12,0,0,0,98,26.74a.67.67,0,0,0-.71-.71A12,12,0,0,0,86,37.27.67.67,0,0,0,86.74,38Z"/><path class="a" d="M98.74,50A12,12,0,0,0,110,38.74a.67.67,0,0,0-.71-.71A12,12,0,0,0,98,49.27.67.67,0,0,0,98.74,50Z"/><path class="a" d="M86,38.74A12,12,0,0,0,97.27,50a.67.67,0,0,0,.71-.71A12,12,0,0,0,86.74,38,.67.67,0,0,0,86,38.74Z"/><path class="a" d="M96,38a2,2,0,1,0,2-2A2,2,0,0,0,96,38Z"/><path class="a" d="M108,50a2,2,0,0,0,2,2h0a2,2,0,0,0,0-4h0A2,2,0,0,0,108,50Z"/><path class="a" d="M84,50a2,2,0,0,0,2,2h0a2,2,0,0,0,0-4h0A2,2,0,0,0,84,50Z"/><path class="a" d="M110.74,38A12,12,0,0,0,122,26.74a.67.67,0,0,0-.71-.71A12,12,0,0,0,110,37.27.67.67,0,0,0,110.74,38Z"/><path class="a" d="M122.74,50A12,12,0,0,0,134,38.74a.67.67,0,0,0-.71-.71A12,12,0,0,0,122,49.27.67.67,0,0,0,122.74,50Z"/><path class="a" d="M110,38.74A12,12,0,0,0,121.27,50a.67.67,0,0,0,.71-.71A12,12,0,0,0,110.74,38,.67.67,0,0,0,110,38.74Z"/><path class="a" d="M120,38a2,2,0,1,0,2-2A2,2,0,0,0,120,38Z"/><path class="a" d="M132,50a2,2,0,0,0,2,2h0a2,2,0,0,0,0-4h0A2,2,0,0,0,132,50Z"/><path class="a" d="M74,2.74A12,12,0,0,0,85.27,14a.67.67,0,0,0,.71-.71A12,12,0,0,0,74.74,2,.67.67,0,0,0,74,2.74Z"/><path class="a" d="M74.74,26A12,12,0,0,0,86,14.74a.67.67,0,0,0-.71-.71A12,12,0,0,0,74,25.27.67.67,0,0,0,74.74,26Z"/><path class="a" d="M62,14.74A12,12,0,0,0,73.27,26a.67.67,0,0,0,.71-.71A12,12,0,0,0,62.74,14,.67.67,0,0,0,62,14.74Z"/><path class="a" d="M72,14a2,2,0,1,0,2-2A2,2,0,0,0,72,14Z"/><path class="a" d="M60,26a2,2,0,1,0,2-2A2,2,0,0,0,60,26Z"/><path class="a" d="M86.74,14A12,12,0,0,0,98,2.74.67.67,0,0,0,97.27,2,12,12,0,0,0,86,13.27.67.67,0,0,0,86.74,14Z"/><path class="a" d="M98.74,26A12,12,0,0,0,110,14.74a.67.67,0,0,0-.71-.71A12,12,0,0,0,98,25.27.67.67,0,0,0,98.74,26Z"/><path class="a" d="M86,14.74A12,12,0,0,0,97.27,26a.67.67,0,0,0,.71-.71A12,12,0,0,0,86.74,14,.67.67,0,0,0,86,14.74Z"/><path class="a" d="M96,14a2,2,0,1,0,2-2A2,2,0,0,0,96,14Z"/><path class="a" d="M84,26a2,2,0,0,0,2,2h0a2,2,0,0,0,0-4h0A2,2,0,0,0,84,26Z"/><path class="a" d="M108,26a2,2,0,0,0,2,2h0a2,2,0,0,0,0-4h0A2,2,0,0,0,108,26Z"/><path class="a" d="M84,2a2,2,0,0,0,2,2h0a2,2,0,1,0,0-4h0A2,2,0,0,0,84,2Z"/><path class="a" d="M50,74.74A12,12,0,0,1,38.74,86a.67.67,0,0,1-.71-.71A12,12,0,0,1,49.27,74,.67.67,0,0,1,50,74.74Z"/><path class="a" d="M61.27,86A12,12,0,0,1,50,74.74a.67.67,0,0,1,.71-.71A12,12,0,0,1,62,85.27.67.67,0,0,1,61.27,86Z"/><path class="a" d="M49.27,98A12,12,0,0,1,38,86.74a.67.67,0,0,1,.71-.71A12,12,0,0,1,50,97.27.67.67,0,0,1,49.27,98Z"/><path class="a" d="M62,86.74A12,12,0,0,1,50.74,98a.67.67,0,0,1-.71-.71A12,12,0,0,1,61.27,86,.67.67,0,0,1,62,86.74Z"/><path class="a" d="M48,86a2,2,0,1,0,2-2A2,2,0,0,0,48,86Z"/><path class="a" d="M36,98h4a2,2,0,0,0-2-2h0A2,2,0,0,0,36,98Z"/><path class="a" d="M26,74.74A12,12,0,0,1,14.74,86a.67.67,0,0,1-.71-.71A12,12,0,0,1,25.27,74,.67.67,0,0,1,26,74.74Z"/><path class="a" d="M37.27,86A12,12,0,0,1,26,74.74a.67.67,0,0,1,.71-.71A12,12,0,0,1,38,85.27.67.67,0,0,1,37.27,86Z"/><path class="a" d="M25.27,98A12,12,0,0,1,14,86.74a.67.67,0,0,1,.71-.71A12,12,0,0,1,26,97.27.67.67,0,0,1,25.27,98Z"/><path class="a" d="M38,86.74A12,12,0,0,1,26.74,98a.67.67,0,0,1-.71-.71A12,12,0,0,1,37.27,86,.67.67,0,0,1,38,86.74Z"/><path class="a" d="M24,86a2,2,0,1,0,2-2A2,2,0,0,0,24,86Z"/><path class="a" d="M12,98h4a2,2,0,0,0-2-2h0A2,2,0,0,0,12,98Z"/><path class="a" d="M13.27,86A12,12,0,0,1,2,74.74.67.67,0,0,1,2.74,74,12,12,0,0,1,14,85.27.67.67,0,0,1,13.27,86Z"/><path class="a" d="M14,86.74A12,12,0,0,1,2.74,98,.67.67,0,0,1,2,97.27,12,12,0,0,1,13.27,86,.67.67,0,0,1,14,86.74Z"/><path class="a" d="M0,86a2,2,0,1,0,2-2A2,2,0,0,0,0,86Z"/><path class="a" d="M50,50.74A12,12,0,0,1,38.74,62a.67.67,0,0,1-.71-.71A12,12,0,0,1,49.27,50,.67.67,0,0,1,50,50.74Z"/><path class="a" d="M61.27,62A12,12,0,0,1,50,50.74a.67.67,0,0,1,.71-.71A12,12,0,0,1,62,61.27.67.67,0,0,1,61.27,62Z"/><path class="a" d="M49.27,74A12,12,0,0,1,38,62.74a.67.67,0,0,1,.71-.71A12,12,0,0,1,50,73.27.67.67,0,0,1,49.27,74Z"/><path class="a" d="M62,62.74A12,12,0,0,1,50.74,74a.67.67,0,0,1-.71-.71A12,12,0,0,1,61.27,62,.67.67,0,0,1,62,62.74Z"/><path class="a" d="M48,62a2,2,0,1,0,2-2A2,2,0,0,0,48,62Z"/><path class="a" d="M36,74a2,2,0,0,0,2,2h0a2,2,0,0,0,0-4h0A2,2,0,0,0,36,74Z"/><path class="a" d="M37.27,62A12,12,0,0,1,26,50.74a.67.67,0,0,1,.71-.71A12,12,0,0,1,38,61.27.67.67,0,0,1,37.27,62Z"/><path class="a" d="M25.27,74A12,12,0,0,1,14,62.74a.67.67,0,0,1,.71-.71A12,12,0,0,1,26,73.27.67.67,0,0,1,25.27,74Z"/><path class="a" d="M38,62.74A12,12,0,0,1,26.74,74a.67.67,0,0,1-.71-.71A12,12,0,0,1,37.27,62,.67.67,0,0,1,38,62.74Z"/><path class="a" d="M24,62a2,2,0,1,0,2-2A2,2,0,0,0,24,62Z"/><path class="a" d="M12,74a2,2,0,0,0,2,2h0a2,2,0,1,0,0-4h0A2,2,0,0,0,12,74Z"/><path class="a" d="M61.27,38A12,12,0,0,1,50,26.74a.67.67,0,0,1,.71-.71A12,12,0,0,1,62,37.27.67.67,0,0,1,61.27,38Z"/><path class="a" d="M49.27,50A12,12,0,0,1,38,38.74a.67.67,0,0,1,.71-.71A12,12,0,0,1,50,49.27.67.67,0,0,1,49.27,50Z"/><path class="a" d="M62,38.74A12,12,0,0,1,50.74,50a.67.67,0,0,1-.71-.71A12,12,0,0,1,61.27,38,.67.67,0,0,1,62,38.74Z"/><path class="a" d="M48,38a2,2,0,1,0,2-2A2,2,0,0,0,48,38Z"/><path class="a" d="M36,50a2,2,0,0,0,2,2h0a2,2,0,0,0,0-4h0A2,2,0,0,0,36,50Z"/></svg>