<svg xmlns="http://www.w3.org/2000/svg" xmlns:xlink="http://www.w3.org/1999/xlink" viewBox="0 0 359.35 718.25"><defs><style>.a,.b{fill:none;}.b{fill:#717374;stroke-miterlimit:10;stroke-width:12px;}.c{fill:url(#a);}</style><pattern id="a" width="718.7" height="718.25" patternUnits="userSpaceOnUse" viewBox="150 0 718.7 718.25"><rect class="a" width="718.7" height="718.25"/><path class="b" d="M637.66,547.86V766.5a16,16,0,0,1-16,16,37.54,37.54,0,0,1-36.88-30.58,38.49,38.49,0,0,1-.63-6.93V526.35a16,16,0,0,1,16-16,37.52,37.52,0,0,1,37.51,37.51Z"/><path class="b" d="M717.89,670v58.27a54.21,54.21,0,0,1-54.23,54.23,16,16,0,0,1-16-16V708.23A54.23,54.23,0,0,1,701.89,654a16,16,0,0,1,16,16Z"/><path class="b" d="M278.31,547.86V766.5a16,16,0,0,1-16,16,37.54,37.54,0,0,1-36.88-30.58,38.49,38.49,0,0,1-.63-6.93V526.35a16,16,0,0,1,16-16,37.52,37.52,0,0,1,37.51,37.51Z"/><path class="b" d="M358.54,670v58.27a54.21,54.21,0,0,1-54.23,54.23,16,16,0,0,1-16-16V708.23A54.23,54.23,0,0,1,342.54,654a16,16,0,0,1,16,16Z"/><path class="b" d="M422,691.51V910.15a16,16,0,0,1-16,16,37.49,37.49,0,0,1-37.51-37.51V670a16,16,0,0,1,16-16A37.52,37.52,0,0,1,422,691.51Z"/><path class="b" d="M-.81,670v58.27a54,54,0,0,1-5.42,23.65A54.22,54.22,0,0,1-55,782.5a15.91,15.91,0,0,1-11.31-4.69A15.91,15.91,0,0,1-71,766.5V708.23A54.23,54.23,0,0,1-16.81,654a16,16,0,0,1,11.32,4.69A16,16,0,0,1-.81,670Z"/><path class="b" d="M62.7,691.51V910.15a16,16,0,0,1-16,16A37.49,37.49,0,0,1,9.19,888.64V670a16,16,0,0,1,16-16A37.52,37.52,0,0,1,62.7,691.51Z"/><circle class="b" cx="610.89" cy="397.28" r="30.58"/><circle class="b" cx="610.89" cy="177.32" r="30.58"/><path class="b" d="M637.66,547.86V766.5a16,16,0,0,1-16,16,37.54,37.54,0,0,1-36.88-30.58,38.49,38.49,0,0,1-.63-6.93V526.35a16,16,0,0,1,16-16,37.52,37.52,0,0,1,37.51,37.51Z"/><path class="b" d="M641.32,227.74A16,16,0,0,1,646,239v58.27a54.23,54.23,0,0,1-54.23,54.23,16,16,0,0,1-16-16V277.28A54.23,54.23,0,0,1,630,223,15.91,15.91,0,0,1,641.32,227.74Z"/><circle class="b" cx="682.76" cy="608.27" r="30.58"/><circle class="b" cx="682.76" cy="109.98" r="30.58"/><path class="b" d="M667,484.22a37.4,37.4,0,0,1-11-26.53V239a16,16,0,0,1,16-16,37.51,37.51,0,0,1,37.51,37.51V479.2a16,16,0,0,1-16,16A37.39,37.39,0,0,1,667,484.22Z"/><path class="b" d="M717.89,670v58.27a54.21,54.21,0,0,1-54.23,54.23,16,16,0,0,1-16-16V708.23A54.23,54.23,0,0,1,701.89,654a16,16,0,0,1,16,16Z"/><path class="b" d="M785.06,371.39a15.91,15.91,0,0,1,4.69,11.31V441a54.23,54.23,0,0,1-54.23,54.23,16,16,0,0,1-16-16V420.93a54.23,54.23,0,0,1,54.23-54.23A15.91,15.91,0,0,1,785.06,371.39Z"/><path class="b" d="M637.66-170.39V48.25a16,16,0,0,1-16,16,37.54,37.54,0,0,1-36.88-30.58,38.49,38.49,0,0,1-.63-6.93V-191.9a16,16,0,0,1,16-16,37.36,37.36,0,0,1,26.52,11A37.38,37.38,0,0,1,637.66-170.39Z"/><path class="b" d="M717.89-48.25V10a54.21,54.21,0,0,1-54.23,54.23,16,16,0,0,1-16-16V-10a54.23,54.23,0,0,1,54.23-54.23,16,16,0,0,1,11.32,4.69A16,16,0,0,1,717.89-48.25Z"/><path class="b" d="M565.78,116.91V335.55a16,16,0,0,1-16,16A37.51,37.51,0,0,1,512.27,314V95.4a16,16,0,0,1,16-16,37.5,37.5,0,0,1,37.51,37.51Z"/><path class="b" d="M569.61,464.62A30.58,30.58,0,1,1,539,434,30.58,30.58,0,0,1,569.61,464.62Z"/><path class="b" d="M574.15,526.35v58.27A54.26,54.26,0,0,1,539,635.38h0a54,54,0,0,1-19.11,3.46,16,16,0,0,1-16-16V564.58a54.19,54.19,0,0,1,54.24-54.23,16,16,0,0,1,16,16Z"/><path class="b" d="M569.61,684.58A30.58,30.58,0,1,1,539,654,30.58,30.58,0,0,1,569.61,684.58Z"/><circle class="b" cx="251.54" cy="397.28" r="30.58"/><circle class="b" cx="251.54" cy="177.32" r="30.58"/><path class="b" d="M278.31,547.86V766.5a16,16,0,0,1-16,16,37.54,37.54,0,0,1-36.88-30.58,38.49,38.49,0,0,1-.63-6.93V526.35a16,16,0,0,1,16-16,37.52,37.52,0,0,1,37.51,37.51Z"/><path class="b" d="M282,227.74A16,16,0,0,1,286.66,239v58.27a54.23,54.23,0,0,1-54.23,54.23,16,16,0,0,1-16-16V277.28A54.23,54.23,0,0,1,270.66,223,15.91,15.91,0,0,1,282,227.74Z"/><circle class="b" cx="323.41" cy="608.27" r="30.58"/><circle class="b" cx="323.41" cy="109.98" r="30.58"/><path class="b" d="M307.65,484.22a37.4,37.4,0,0,1-11-26.53V239a16,16,0,0,1,16-16,37.51,37.51,0,0,1,37.51,37.51V479.2a16,16,0,0,1-16,16A37.39,37.39,0,0,1,307.65,484.22Z"/><path class="b" d="M358.54,670v58.27a54.21,54.21,0,0,1-54.23,54.23,16,16,0,0,1-16-16V708.23A54.23,54.23,0,0,1,342.54,654a16,16,0,0,1,16,16Z"/><circle class="b" cx="395.28" cy="540.93" r="30.58"/><circle class="b" cx="395.28" cy="320.97" r="30.58"/><path class="b" d="M422,691.51V910.15a16,16,0,0,1-16,16,37.49,37.49,0,0,1-37.51-37.51V670a16,16,0,0,1,16-16A37.52,37.52,0,0,1,422,691.51Z"/><path class="b" d="M425.71,371.39a15.91,15.91,0,0,1,4.69,11.31V441a54.23,54.23,0,0,1-54.23,54.23,16,16,0,0,1-16-16V420.93A54.23,54.23,0,0,1,414.4,366.7,15.91,15.91,0,0,1,425.71,371.39Z"/><circle class="b" cx="467.15" cy="253.63" r="30.58"/><path class="b" d="M451.39,627.86a37.36,37.36,0,0,1-11-26.52V382.7a16,16,0,0,1,16-16,37.51,37.51,0,0,1,37.51,37.51V622.85a16,16,0,0,1-16,16A37.36,37.36,0,0,1,451.39,627.86Z"/><circle class="b" cx="467.16" cy="751.92" r="30.58"/><path class="b" d="M497.59,84.09a16,16,0,0,1,4.68,11.31v58.27A54.23,54.23,0,0,1,448,207.9a16,16,0,0,1-16-16V133.63A54.23,54.23,0,0,1,486.27,79.4,16,16,0,0,1,497.59,84.09Z"/><path class="b" d="M565.79,116.91V335.55a16,16,0,0,1-16,16A37.51,37.51,0,0,1,512.28,314V95.4a16,16,0,0,1,16-16,37.5,37.5,0,0,1,37.51,37.51Z"/><ellipse class="b" cx="539.02" cy="464.62" rx="30.59" ry="30.58"/><path class="b" d="M574.15,526.35v58.27A54.25,54.25,0,0,1,539,635.38h0a54.09,54.09,0,0,1-19.12,3.46,16,16,0,0,1-16-16V564.58a54.2,54.2,0,0,1,54.24-54.23,16,16,0,0,1,16,16Z"/><ellipse class="b" cx="539.02" cy="684.58" rx="30.59" ry="30.58"/><path class="b" d="M278.31-170.39V48.25a16,16,0,0,1-16,16,37.54,37.54,0,0,1-36.88-30.58,38.49,38.49,0,0,1-.63-6.93V-191.9a16,16,0,0,1,16-16,37.36,37.36,0,0,1,26.52,11A37.38,37.38,0,0,1,278.31-170.39Z"/><path class="b" d="M358.54-48.25V10a54.21,54.21,0,0,1-54.23,54.23,16,16,0,0,1-16-16V-10a54.23,54.23,0,0,1,54.23-54.23,16,16,0,0,1,11.32,4.69A16,16,0,0,1,358.54-48.25Z"/><path class="b" d="M422-26.74V191.9a16,16,0,0,1-16,16,37.49,37.49,0,0,1-37.51-37.51V-48.25a16,16,0,0,1,16-16,37.38,37.38,0,0,1,26.52,11A37.4,37.4,0,0,1,422-26.74Z"/><circle class="b" cx="467.16" cy="33.67" r="30.58"/><path class="b" d="M206.43,116.91V335.55a16,16,0,0,1-16,16A37.51,37.51,0,0,1,152.92,314V95.4a16,16,0,0,1,16-16,37.5,37.5,0,0,1,37.51,37.51Z"/><path class="b" d="M210.26,464.62A30.58,30.58,0,1,1,179.67,434,30.58,30.58,0,0,1,210.26,464.62Z"/><path class="b" d="M214.8,526.35v58.27a54.26,54.26,0,0,1-35.13,50.76h0a54,54,0,0,1-19.11,3.46,16,16,0,0,1-16-16V564.58a54.19,54.19,0,0,1,54.24-54.23,16,16,0,0,1,16,16Z"/><path class="b" d="M210.26,684.58A30.58,30.58,0,1,1,179.67,654,30.58,30.58,0,0,1,210.26,684.58Z"/><path class="b" d="M-.81,670v58.27a54,54,0,0,1-5.42,23.65A54.22,54.22,0,0,1-55,782.5a15.91,15.91,0,0,1-11.31-4.69A15.91,15.91,0,0,1-71,766.5V708.23A54.23,54.23,0,0,1-16.81,654a16,16,0,0,1,11.32,4.69A16,16,0,0,1-.81,670Z"/><circle class="b" cx="35.93" cy="540.93" r="30.58"/><circle class="b" cx="35.93" cy="320.97" r="30.58"/><path class="b" d="M62.7,691.51V910.15a16,16,0,0,1-16,16A37.49,37.49,0,0,1,9.19,888.64V670a16,16,0,0,1,16-16A37.52,37.52,0,0,1,62.7,691.51Z"/><path class="b" d="M66.36,371.39a15.91,15.91,0,0,1,4.69,11.31V441A54.23,54.23,0,0,1,16.82,495.2a16,16,0,0,1-16-16V420.93A54.23,54.23,0,0,1,55.05,366.7,15.91,15.91,0,0,1,66.36,371.39Z"/><circle class="b" cx="107.8" cy="253.63" r="30.58"/><path class="b" d="M92,627.86a37.36,37.36,0,0,1-11-26.52V382.7a16,16,0,0,1,16-16,37.51,37.51,0,0,1,37.51,37.51V622.85a16,16,0,0,1-16,16A37.36,37.36,0,0,1,92,627.86Z"/><path class="b" d="M138.24,84.09a16,16,0,0,1,4.68,11.31v58.27A54.23,54.23,0,0,1,88.69,207.9a16,16,0,0,1-16-16V133.63A54.23,54.23,0,0,1,126.92,79.4,16,16,0,0,1,138.24,84.09Z"/><path class="b" d="M206.44,116.91V335.55a16,16,0,0,1-16,16A37.51,37.51,0,0,1,152.93,314V95.4a16,16,0,0,1,16-16,37.5,37.5,0,0,1,37.51,37.51Z"/><ellipse class="b" cx="179.67" cy="464.62" rx="30.59" ry="30.58"/><path class="b" d="M214.8,526.35v58.27a54.25,54.25,0,0,1-35.12,50.76h0a54.09,54.09,0,0,1-19.12,3.46,16,16,0,0,1-16-16V564.58a54.2,54.2,0,0,1,54.24-54.23,16,16,0,0,1,16,16Z"/><ellipse class="b" cx="179.67" cy="684.58" rx="30.59" ry="30.58"/><path class="b" d="M-.81-48.25V10A54,54,0,0,1-6.23,33.67,54.22,54.22,0,0,1-55,64.25a15.91,15.91,0,0,1-11.31-4.69A15.91,15.91,0,0,1-71,48.25V-10A54.23,54.23,0,0,1-16.81-64.25,16,16,0,0,1-5.49-59.56,16,16,0,0,1-.81-48.25Z"/><path class="b" d="M62.7-26.74V191.9a16,16,0,0,1-16,16A37.49,37.49,0,0,1,9.19,170.39V-48.25a16,16,0,0,1,16-16,37.38,37.38,0,0,1,26.52,11A37.4,37.4,0,0,1,62.7-26.74Z"/><circle class="b" cx="107.81" cy="33.67" r="30.58"/><path class="b" d="M637.66-170.39V48.25a16,16,0,0,1-16,16,37.54,37.54,0,0,1-36.88-30.58,38.49,38.49,0,0,1-.63-6.93V-191.9a16,16,0,0,1,16-16,37.36,37.36,0,0,1,26.52,11A37.38,37.38,0,0,1,637.66-170.39Z"/><path class="b" d="M717.89-48.25V10a54.21,54.21,0,0,1-54.23,54.23,16,16,0,0,1-16-16V-10a54.23,54.23,0,0,1,54.23-54.23,16,16,0,0,1,11.32,4.69A16,16,0,0,1,717.89-48.25Z"/><path class="b" d="M278.31-170.39V48.25a16,16,0,0,1-16,16,37.54,37.54,0,0,1-36.88-30.58,38.49,38.49,0,0,1-.63-6.93V-191.9a16,16,0,0,1,16-16,37.36,37.36,0,0,1,26.52,11A37.38,37.38,0,0,1,278.31-170.39Z"/><path class="b" d="M358.54-48.25V10a54.21,54.21,0,0,1-54.23,54.23,16,16,0,0,1-16-16V-10a54.23,54.23,0,0,1,54.23-54.23,16,16,0,0,1,11.32,4.69A16,16,0,0,1,358.54-48.25Z"/><path class="b" d="M422-26.74V191.9a16,16,0,0,1-16,16,37.49,37.49,0,0,1-37.51-37.51V-48.25a16,16,0,0,1,16-16,37.38,37.38,0,0,1,26.52,11A37.4,37.4,0,0,1,422-26.74Z"/><circle class="b" cx="467.16" cy="33.67" r="30.58"/><path class="b" d="M-.81-48.25V10A54,54,0,0,1-6.23,33.67,54.22,54.22,0,0,1-55,64.25a15.91,15.91,0,0,1-11.31-4.69A15.91,15.91,0,0,1-71,48.25V-10A54.23,54.23,0,0,1-16.81-64.25,16,16,0,0,1-5.49-59.56,16,16,0,0,1-.81-48.25Z"/><path class="b" d="M62.7-26.74V191.9a16,16,0,0,1-16,16A37.49,37.49,0,0,1,9.19,170.39V-48.25a16,16,0,0,1,16-16,37.38,37.38,0,0,1,26.52,11A37.4,37.4,0,0,1,62.7-26.74Z"/><circle class="b" cx="107.81" cy="33.67" r="30.58"/></pattern></defs><title>Asset 150</title><rect class="c" width="359.35" height="718.25"/></svg>